solid OpenSCAD_Model
  facet normal 0 1 -0
    outer loop
      vertex 98 81 0
      vertex 0 81 11
      vertex 98 81 11
    endloop
  endfacet
  facet normal 0 1 0
    outer loop
      vertex 0 81 11
      vertex 98 81 0
      vertex 0 81 0
    endloop
  endfacet
  facet normal 0 -1 0
    outer loop
      vertex 0 0 0
      vertex 98 0 11
      vertex 0 0 11
    endloop
  endfacet
  facet normal 0 -1 -0
    outer loop
      vertex 98 0 11
      vertex 0 0 0
      vertex 98 0 0
    endloop
  endfacet
  facet normal 0.634376 0 0.773025
    outer loop
      vertex 95.7778 78.7778 15.1573
      vertex 96.5355 1.46447 14.5355
      vertex 96.5355 79.5355 14.5355
    endloop
  endfacet
  facet normal 0.634376 0 0.773025
    outer loop
      vertex 96.5355 1.46447 14.5355
      vertex 95.7778 78.7778 15.1573
      vertex 95.7778 2.22215 15.1573
    endloop
  endfacet
  facet normal 0.098049 0 0.995182
    outer loop
      vertex 93 76 16
      vertex 93.9754 4.02455 15.9039
      vertex 93.9754 76.9754 15.9039
    endloop
  endfacet
  facet normal 0.098049 0 0.995182
    outer loop
      vertex 93.9754 4.02455 15.9039
      vertex 93 76 16
      vertex 93 5 16
    endloop
  endfacet
  facet normal 0.471451 0 0.881892
    outer loop
      vertex 94.9134 77.9134 15.6194
      vertex 95.7778 2.22215 15.1573
      vertex 95.7778 78.7778 15.1573
    endloop
  endfacet
  facet normal 0.471451 0 0.881892
    outer loop
      vertex 95.7778 2.22215 15.1573
      vertex 94.9134 77.9134 15.6194
      vertex 94.9134 3.08658 15.6194
    endloop
  endfacet
  facet normal 0.290248 0 0.956951
    outer loop
      vertex 93.9754 76.9754 15.9039
      vertex 94.9134 3.08658 15.6194
      vertex 94.9134 77.9134 15.6194
    endloop
  endfacet
  facet normal 0.290248 0 0.956951
    outer loop
      vertex 94.9134 3.08658 15.6194
      vertex 93.9754 76.9754 15.9039
      vertex 93.9754 4.02455 15.9039
    endloop
  endfacet
  facet normal 0.881915 -0 0.471409
    outer loop
      vertex 97.1573 0.842652 13.7779
      vertex 97.6194 80.6194 12.9134
      vertex 97.1573 80.1573 13.7779
    endloop
  endfacet
  facet normal 0.881915 0 0.471409
    outer loop
      vertex 97.6194 80.6194 12.9134
      vertex 97.1573 0.842652 13.7779
      vertex 97.6194 0.380603 12.9134
    endloop
  endfacet
  facet normal 0.772984 -0 0.634426
    outer loop
      vertex 96.5355 1.46447 14.5355
      vertex 97.1573 80.1573 13.7779
      vertex 96.5355 79.5355 14.5355
    endloop
  endfacet
  facet normal 0.772984 0 0.634426
    outer loop
      vertex 97.1573 80.1573 13.7779
      vertex 96.5355 1.46447 14.5355
      vertex 97.1573 0.842652 13.7779
    endloop
  endfacet
  facet normal 0.956943 -0 0.290276
    outer loop
      vertex 97.6194 0.380603 12.9134
      vertex 97.9039 80.9039 11.9755
      vertex 97.6194 80.6194 12.9134
    endloop
  endfacet
  facet normal 0.956943 0 0.290276
    outer loop
      vertex 97.9039 80.9039 11.9755
      vertex 97.6194 0.380603 12.9134
      vertex 97.9039 0.0960741 11.9755
    endloop
  endfacet
  facet normal 0.995183 -0 0.098039
    outer loop
      vertex 97.9039 0.0960741 11.9755
      vertex 98 81 11
      vertex 97.9039 80.9039 11.9755
    endloop
  endfacet
  facet normal 0.995183 0 0.098039
    outer loop
      vertex 98 81 11
      vertex 97.9039 0.0960741 11.9755
      vertex 98 0 11
    endloop
  endfacet
  facet normal -1 0 0
    outer loop
      vertex 0 0 0
      vertex 0 81 11
      vertex 0 81 0
    endloop
  endfacet
  facet normal -1 -0 0
    outer loop
      vertex 0 81 11
      vertex 0 0 0
      vertex 0 0 11
    endloop
  endfacet
  facet normal 0 0.634376 0.773025
    outer loop
      vertex 96.5355 79.5355 14.5355
      vertex 2.22215 78.7778 15.1573
      vertex 95.7778 78.7778 15.1573
    endloop
  endfacet
  facet normal 0 0.634376 0.773025
    outer loop
      vertex 2.22215 78.7778 15.1573
      vertex 96.5355 79.5355 14.5355
      vertex 1.46447 79.5355 14.5355
    endloop
  endfacet
  facet normal 0 0.772984 0.634426
    outer loop
      vertex 97.1573 80.1573 13.7779
      vertex 1.46447 79.5355 14.5355
      vertex 96.5355 79.5355 14.5355
    endloop
  endfacet
  facet normal 0 0.772984 0.634426
    outer loop
      vertex 1.46447 79.5355 14.5355
      vertex 97.1573 80.1573 13.7779
      vertex 0.842652 80.1573 13.7779
    endloop
  endfacet
  facet normal 0 0.995183 0.098039
    outer loop
      vertex 98 81 11
      vertex 0.0960741 80.9039 11.9755
      vertex 97.9039 80.9039 11.9755
    endloop
  endfacet
  facet normal 0 0.995183 0.098039
    outer loop
      vertex 0.0960741 80.9039 11.9755
      vertex 98 81 11
      vertex 0 81 11
    endloop
  endfacet
  facet normal 0 0.098049 0.995182
    outer loop
      vertex 93.9754 76.9754 15.9039
      vertex 5 76 16
      vertex 93 76 16
    endloop
  endfacet
  facet normal 0 0.098049 0.995182
    outer loop
      vertex 5 76 16
      vertex 93.9754 76.9754 15.9039
      vertex 4.02455 76.9754 15.9039
    endloop
  endfacet
  facet normal 0 0.471451 0.881892
    outer loop
      vertex 95.7778 78.7778 15.1573
      vertex 3.08658 77.9134 15.6194
      vertex 94.9134 77.9134 15.6194
    endloop
  endfacet
  facet normal 0 0.471451 0.881892
    outer loop
      vertex 3.08658 77.9134 15.6194
      vertex 95.7778 78.7778 15.1573
      vertex 2.22215 78.7778 15.1573
    endloop
  endfacet
  facet normal 0 0.290248 0.956951
    outer loop
      vertex 94.9134 77.9134 15.6194
      vertex 4.02455 76.9754 15.9039
      vertex 93.9754 76.9754 15.9039
    endloop
  endfacet
  facet normal 0 0.290248 0.956951
    outer loop
      vertex 4.02455 76.9754 15.9039
      vertex 94.9134 77.9134 15.6194
      vertex 3.08658 77.9134 15.6194
    endloop
  endfacet
  facet normal 0 0.956943 0.290276
    outer loop
      vertex 97.9039 80.9039 11.9755
      vertex 0.380603 80.6194 12.9134
      vertex 97.6194 80.6194 12.9134
    endloop
  endfacet
  facet normal 0 0.956943 0.290276
    outer loop
      vertex 0.380603 80.6194 12.9134
      vertex 97.9039 80.9039 11.9755
      vertex 0.0960741 80.9039 11.9755
    endloop
  endfacet
  facet normal 0 0.881915 0.471409
    outer loop
      vertex 97.6194 80.6194 12.9134
      vertex 0.842652 80.1573 13.7779
      vertex 97.1573 80.1573 13.7779
    endloop
  endfacet
  facet normal 0 0.881915 0.471409
    outer loop
      vertex 0.842652 80.1573 13.7779
      vertex 97.6194 80.6194 12.9134
      vertex 0.380603 80.6194 12.9134
    endloop
  endfacet
  facet normal -0.634386 0 0.773016
    outer loop
      vertex 1.46447 79.5355 14.5355
      vertex 2.22215 2.22215 15.1573
      vertex 2.22215 78.7778 15.1573
    endloop
  endfacet
  facet normal -0.634386 0 0.773016
    outer loop
      vertex 2.22215 2.22215 15.1573
      vertex 1.46447 79.5355 14.5355
      vertex 1.46447 1.46447 14.5355
    endloop
  endfacet
  facet normal -0.098044 0 0.995182
    outer loop
      vertex 4.02455 76.9754 15.9039
      vertex 5 5 16
      vertex 5 76 16
    endloop
  endfacet
  facet normal -0.098044 0 0.995182
    outer loop
      vertex 5 5 16
      vertex 4.02455 76.9754 15.9039
      vertex 4.02455 4.02455 15.9039
    endloop
  endfacet
  facet normal -0.471438 0 0.881899
    outer loop
      vertex 2.22215 78.7778 15.1573
      vertex 3.08658 3.08658 15.6194
      vertex 3.08658 77.9134 15.6194
    endloop
  endfacet
  facet normal -0.471438 0 0.881899
    outer loop
      vertex 3.08658 3.08658 15.6194
      vertex 2.22215 78.7778 15.1573
      vertex 2.22215 2.22215 15.1573
    endloop
  endfacet
  facet normal -0.290257 0 0.956949
    outer loop
      vertex 3.08658 77.9134 15.6194
      vertex 4.02455 4.02455 15.9039
      vertex 4.02455 76.9754 15.9039
    endloop
  endfacet
  facet normal -0.290257 0 0.956949
    outer loop
      vertex 4.02455 4.02455 15.9039
      vertex 3.08658 77.9134 15.6194
      vertex 3.08658 3.08658 15.6194
    endloop
  endfacet
  facet normal -0.881936 0 0.471368
    outer loop
      vertex 0.380603 80.6194 12.9134
      vertex 0.842652 0.842652 13.7779
      vertex 0.842652 80.1573 13.7779
    endloop
  endfacet
  facet normal -0.881936 0 0.471368
    outer loop
      vertex 0.842652 0.842652 13.7779
      vertex 0.380603 80.6194 12.9134
      vertex 0.380603 0.380603 12.9134
    endloop
  endfacet
  facet normal -0.772975 0 0.634437
    outer loop
      vertex 0.842652 80.1573 13.7779
      vertex 1.46447 1.46447 14.5355
      vertex 1.46447 79.5355 14.5355
    endloop
  endfacet
  facet normal -0.772975 0 0.634437
    outer loop
      vertex 1.46447 1.46447 14.5355
      vertex 0.842652 80.1573 13.7779
      vertex 0.842652 0.842652 13.7779
    endloop
  endfacet
  facet normal -0.956935 0 0.290303
    outer loop
      vertex 0.0960741 80.9039 11.9755
      vertex 0.380603 0.380603 12.9134
      vertex 0.380603 80.6194 12.9134
    endloop
  endfacet
  facet normal -0.956935 0 0.290303
    outer loop
      vertex 0.380603 0.380603 12.9134
      vertex 0.0960741 80.9039 11.9755
      vertex 0.0960741 0.0960741 11.9755
    endloop
  endfacet
  facet normal -0.995185 0 0.0980128
    outer loop
      vertex 0 81 11
      vertex 0.0960741 0.0960741 11.9755
      vertex 0.0960741 80.9039 11.9755
    endloop
  endfacet
  facet normal -0.995185 0 0.0980128
    outer loop
      vertex 0.0960741 0.0960741 11.9755
      vertex 0 81 11
      vertex 0 0 11
    endloop
  endfacet
  facet normal 0 -0.634386 0.773016
    outer loop
      vertex 2.22215 2.22215 15.1573
      vertex 96.5355 1.46447 14.5355
      vertex 95.7778 2.22215 15.1573
    endloop
  endfacet
  facet normal 0 -0.634386 0.773016
    outer loop
      vertex 96.5355 1.46447 14.5355
      vertex 2.22215 2.22215 15.1573
      vertex 1.46447 1.46447 14.5355
    endloop
  endfacet
  facet normal 0 -0.772975 0.634437
    outer loop
      vertex 0.842652 0.842652 13.7779
      vertex 96.5355 1.46447 14.5355
      vertex 1.46447 1.46447 14.5355
    endloop
  endfacet
  facet normal 0 -0.772975 0.634437
    outer loop
      vertex 96.5355 1.46447 14.5355
      vertex 0.842652 0.842652 13.7779
      vertex 97.1573 0.842652 13.7779
    endloop
  endfacet
  facet normal 0 -0.995185 0.0980128
    outer loop
      vertex 0 0 11
      vertex 97.9039 0.0960741 11.9755
      vertex 0.0960741 0.0960741 11.9755
    endloop
  endfacet
  facet normal 0 -0.995185 0.0980128
    outer loop
      vertex 97.9039 0.0960741 11.9755
      vertex 0 0 11
      vertex 98 0 11
    endloop
  endfacet
  facet normal 0 -0.098044 0.995182
    outer loop
      vertex 5 5 16
      vertex 93.9754 4.02455 15.9039
      vertex 93 5 16
    endloop
  endfacet
  facet normal 0 -0.098044 0.995182
    outer loop
      vertex 93.9754 4.02455 15.9039
      vertex 5 5 16
      vertex 4.02455 4.02455 15.9039
    endloop
  endfacet
  facet normal 0 -0.471438 0.881899
    outer loop
      vertex 3.08658 3.08658 15.6194
      vertex 95.7778 2.22215 15.1573
      vertex 94.9134 3.08658 15.6194
    endloop
  endfacet
  facet normal 0 -0.471438 0.881899
    outer loop
      vertex 95.7778 2.22215 15.1573
      vertex 3.08658 3.08658 15.6194
      vertex 2.22215 2.22215 15.1573
    endloop
  endfacet
  facet normal 0 -0.290257 0.956949
    outer loop
      vertex 4.02455 4.02455 15.9039
      vertex 94.9134 3.08658 15.6194
      vertex 93.9754 4.02455 15.9039
    endloop
  endfacet
  facet normal 0 -0.290257 0.956949
    outer loop
      vertex 94.9134 3.08658 15.6194
      vertex 4.02455 4.02455 15.9039
      vertex 3.08658 3.08658 15.6194
    endloop
  endfacet
  facet normal 0 -0.956935 0.290303
    outer loop
      vertex 0.0960741 0.0960741 11.9755
      vertex 97.6194 0.380603 12.9134
      vertex 0.380603 0.380603 12.9134
    endloop
  endfacet
  facet normal 0 -0.956935 0.290303
    outer loop
      vertex 97.6194 0.380603 12.9134
      vertex 0.0960741 0.0960741 11.9755
      vertex 97.9039 0.0960741 11.9755
    endloop
  endfacet
  facet normal 0 -0.881936 0.471368
    outer loop
      vertex 0.380603 0.380603 12.9134
      vertex 97.1573 0.842652 13.7779
      vertex 0.842652 0.842652 13.7779
    endloop
  endfacet
  facet normal 0 -0.881936 0.471368
    outer loop
      vertex 97.1573 0.842652 13.7779
      vertex 0.380603 0.380603 12.9134
      vertex 97.6194 0.380603 12.9134
    endloop
  endfacet
  facet normal 1 -0 0
    outer loop
      vertex 8 8 16
      vertex 8 9 8
      vertex 8 9 16
    endloop
  endfacet
  facet normal 1 0 0
    outer loop
      vertex 8 9 8
      vertex 8 8 16
      vertex 8 8 8
    endloop
  endfacet
  facet normal -1 0 0
    outer loop
      vertex 21.5 8 8
      vertex 21.5 9 16
      vertex 21.5 9 8
    endloop
  endfacet
  facet normal -1 -0 0
    outer loop
      vertex 21.5 9 16
      vertex 21.5 8 8
      vertex 21.5 8 16
    endloop
  endfacet
  facet normal -0 0 1
    outer loop
      vertex 8 9 8
      vertex 21.5 8 8
      vertex 21.5 9 8
    endloop
  endfacet
  facet normal 0 0 1
    outer loop
      vertex 21.5 8 8
      vertex 8 9 8
      vertex 8 8 8
    endloop
  endfacet
  facet normal 0 1 -0
    outer loop
      vertex 21.5 8 8
      vertex 8 8 16
      vertex 21.5 8 16
    endloop
  endfacet
  facet normal 0 1 0
    outer loop
      vertex 8 8 16
      vertex 21.5 8 8
      vertex 8 8 8
    endloop
  endfacet
  facet normal 0 -1 0
    outer loop
      vertex 8 9 8
      vertex 21.5 9 16
      vertex 8 9 16
    endloop
  endfacet
  facet normal 0 -1 -0
    outer loop
      vertex 21.5 9 16
      vertex 8 9 8
      vertex 21.5 9 8
    endloop
  endfacet
  facet normal 1 -0 0
    outer loop
      vertex 25.75 8 16
      vertex 25.75 9 8
      vertex 25.75 9 16
    endloop
  endfacet
  facet normal 1 0 0
    outer loop
      vertex 25.75 9 8
      vertex 25.75 8 16
      vertex 25.75 8 8
    endloop
  endfacet
  facet normal -1 0 0
    outer loop
      vertex 39.25 8 8
      vertex 39.25 9 16
      vertex 39.25 9 8
    endloop
  endfacet
  facet normal -1 -0 0
    outer loop
      vertex 39.25 9 16
      vertex 39.25 8 8
      vertex 39.25 8 16
    endloop
  endfacet
  facet normal 0 -1 0
    outer loop
      vertex 25.75 9 8
      vertex 39.25 9 16
      vertex 25.75 9 16
    endloop
  endfacet
  facet normal 0 -1 -0
    outer loop
      vertex 39.25 9 16
      vertex 25.75 9 8
      vertex 39.25 9 8
    endloop
  endfacet
  facet normal -0 0 1
    outer loop
      vertex 25.75 9 8
      vertex 39.25 8 8
      vertex 39.25 9 8
    endloop
  endfacet
  facet normal 0 0 1
    outer loop
      vertex 39.25 8 8
      vertex 25.75 9 8
      vertex 25.75 8 8
    endloop
  endfacet
  facet normal 0 1 -0
    outer loop
      vertex 39.25 8 8
      vertex 25.75 8 16
      vertex 39.25 8 16
    endloop
  endfacet
  facet normal 0 1 0
    outer loop
      vertex 25.75 8 16
      vertex 39.25 8 8
      vertex 25.75 8 8
    endloop
  endfacet
  facet normal 1 -0 0
    outer loop
      vertex 43.5 8 16
      vertex 43.5 9 8
      vertex 43.5 9 16
    endloop
  endfacet
  facet normal 1 0 0
    outer loop
      vertex 43.5 9 8
      vertex 43.5 8 16
      vertex 43.5 8 8
    endloop
  endfacet
  facet normal -1 0 0
    outer loop
      vertex 57 8 8
      vertex 57 9 16
      vertex 57 9 8
    endloop
  endfacet
  facet normal -1 -0 0
    outer loop
      vertex 57 9 16
      vertex 57 8 8
      vertex 57 8 16
    endloop
  endfacet
  facet normal 0 -1 0
    outer loop
      vertex 43.5 9 8
      vertex 57 9 16
      vertex 43.5 9 16
    endloop
  endfacet
  facet normal 0 -1 -0
    outer loop
      vertex 57 9 16
      vertex 43.5 9 8
      vertex 57 9 8
    endloop
  endfacet
  facet normal -0 0 1
    outer loop
      vertex 43.5 9 8
      vertex 57 8 8
      vertex 57 9 8
    endloop
  endfacet
  facet normal 0 0 1
    outer loop
      vertex 57 8 8
      vertex 43.5 9 8
      vertex 43.5 8 8
    endloop
  endfacet
  facet normal 0 1 -0
    outer loop
      vertex 57 8 8
      vertex 43.5 8 16
      vertex 57 8 16
    endloop
  endfacet
  facet normal 0 1 0
    outer loop
      vertex 43.5 8 16
      vertex 57 8 8
      vertex 43.5 8 8
    endloop
  endfacet
  facet normal 1 -0 0
    outer loop
      vertex 61.25 8 16
      vertex 61.25 9 8
      vertex 61.25 9 16
    endloop
  endfacet
  facet normal 1 0 0
    outer loop
      vertex 61.25 9 8
      vertex 61.25 8 16
      vertex 61.25 8 8
    endloop
  endfacet
  facet normal -1 0 0
    outer loop
      vertex 74.75 8 8
      vertex 74.75 9 16
      vertex 74.75 9 8
    endloop
  endfacet
  facet normal -1 -0 0
    outer loop
      vertex 74.75 9 16
      vertex 74.75 8 8
      vertex 74.75 8 16
    endloop
  endfacet
  facet normal 0 -1 0
    outer loop
      vertex 61.25 9 8
      vertex 74.75 9 16
      vertex 61.25 9 16
    endloop
  endfacet
  facet normal 0 -1 -0
    outer loop
      vertex 74.75 9 16
      vertex 61.25 9 8
      vertex 74.75 9 8
    endloop
  endfacet
  facet normal -0 0 1
    outer loop
      vertex 61.25 9 8
      vertex 74.75 8 8
      vertex 74.75 9 8
    endloop
  endfacet
  facet normal 0 0 1
    outer loop
      vertex 74.75 8 8
      vertex 61.25 9 8
      vertex 61.25 8 8
    endloop
  endfacet
  facet normal 0 1 -0
    outer loop
      vertex 74.75 8 8
      vertex 61.25 8 16
      vertex 74.75 8 16
    endloop
  endfacet
  facet normal 0 1 0
    outer loop
      vertex 61.25 8 16
      vertex 74.75 8 8
      vertex 61.25 8 8
    endloop
  endfacet
  facet normal 1 -0 0
    outer loop
      vertex 79 8 16
      vertex 79 9 8
      vertex 79 9 16
    endloop
  endfacet
  facet normal 1 0 0
    outer loop
      vertex 79 9 8
      vertex 79 8 16
      vertex 79 8 8
    endloop
  endfacet
  facet normal -1 0 0
    outer loop
      vertex 92.5 8 8
      vertex 92.5 9 16
      vertex 92.5 9 8
    endloop
  endfacet
  facet normal -1 -0 0
    outer loop
      vertex 92.5 9 16
      vertex 92.5 8 8
      vertex 92.5 8 16
    endloop
  endfacet
  facet normal -0 0 1
    outer loop
      vertex 79 9 8
      vertex 92.5 8 8
      vertex 92.5 9 8
    endloop
  endfacet
  facet normal 0 0 1
    outer loop
      vertex 92.5 8 8
      vertex 79 9 8
      vertex 79 8 8
    endloop
  endfacet
  facet normal 0 1 -0
    outer loop
      vertex 92.5 8 8
      vertex 79 8 16
      vertex 92.5 8 16
    endloop
  endfacet
  facet normal 0 1 0
    outer loop
      vertex 79 8 16
      vertex 92.5 8 8
      vertex 79 8 8
    endloop
  endfacet
  facet normal 0 -1 0
    outer loop
      vertex 79 9 8
      vertex 92.5 9 16
      vertex 79 9 16
    endloop
  endfacet
  facet normal 0 -1 -0
    outer loop
      vertex 92.5 9 16
      vertex 79 9 8
      vertex 92.5 9 8
    endloop
  endfacet
  facet normal 1 -0 0
    outer loop
      vertex 8 16 16
      vertex 8 17 8
      vertex 8 17 16
    endloop
  endfacet
  facet normal 1 0 0
    outer loop
      vertex 8 17 8
      vertex 8 16 16
      vertex 8 16 8
    endloop
  endfacet
  facet normal -1 0 0
    outer loop
      vertex 21.5 16 8
      vertex 21.5 17 16
      vertex 21.5 17 8
    endloop
  endfacet
  facet normal -1 -0 0
    outer loop
      vertex 21.5 17 16
      vertex 21.5 16 8
      vertex 21.5 16 16
    endloop
  endfacet
  facet normal 0 -1 0
    outer loop
      vertex 8 17 8
      vertex 21.5 17 16
      vertex 8 17 16
    endloop
  endfacet
  facet normal 0 -1 -0
    outer loop
      vertex 21.5 17 16
      vertex 8 17 8
      vertex 21.5 17 8
    endloop
  endfacet
  facet normal -0 0 1
    outer loop
      vertex 8 17 8
      vertex 21.5 16 8
      vertex 21.5 17 8
    endloop
  endfacet
  facet normal 0 0 1
    outer loop
      vertex 21.5 16 8
      vertex 8 17 8
      vertex 8 16 8
    endloop
  endfacet
  facet normal 0 1 -0
    outer loop
      vertex 21.5 16 8
      vertex 8 16 16
      vertex 21.5 16 16
    endloop
  endfacet
  facet normal 0 1 0
    outer loop
      vertex 8 16 16
      vertex 21.5 16 8
      vertex 8 16 8
    endloop
  endfacet
  facet normal 1 -0 0
    outer loop
      vertex 25.75 16 16
      vertex 25.75 17 8
      vertex 25.75 17 16
    endloop
  endfacet
  facet normal 1 0 0
    outer loop
      vertex 25.75 17 8
      vertex 25.75 16 16
      vertex 25.75 16 8
    endloop
  endfacet
  facet normal -1 0 0
    outer loop
      vertex 39.25 16 8
      vertex 39.25 17 16
      vertex 39.25 17 8
    endloop
  endfacet
  facet normal -1 -0 0
    outer loop
      vertex 39.25 17 16
      vertex 39.25 16 8
      vertex 39.25 16 16
    endloop
  endfacet
  facet normal -0 0 1
    outer loop
      vertex 25.75 17 8
      vertex 39.25 16 8
      vertex 39.25 17 8
    endloop
  endfacet
  facet normal 0 0 1
    outer loop
      vertex 39.25 16 8
      vertex 25.75 17 8
      vertex 25.75 16 8
    endloop
  endfacet
  facet normal 0 1 -0
    outer loop
      vertex 39.25 16 8
      vertex 25.75 16 16
      vertex 39.25 16 16
    endloop
  endfacet
  facet normal 0 1 0
    outer loop
      vertex 25.75 16 16
      vertex 39.25 16 8
      vertex 25.75 16 8
    endloop
  endfacet
  facet normal 0 -1 0
    outer loop
      vertex 25.75 17 8
      vertex 39.25 17 16
      vertex 25.75 17 16
    endloop
  endfacet
  facet normal 0 -1 -0
    outer loop
      vertex 39.25 17 16
      vertex 25.75 17 8
      vertex 39.25 17 8
    endloop
  endfacet
  facet normal 1 -0 0
    outer loop
      vertex 43.5 16 16
      vertex 43.5 17 8
      vertex 43.5 17 16
    endloop
  endfacet
  facet normal 1 0 0
    outer loop
      vertex 43.5 17 8
      vertex 43.5 16 16
      vertex 43.5 16 8
    endloop
  endfacet
  facet normal -1 0 0
    outer loop
      vertex 57 16 8
      vertex 57 17 16
      vertex 57 17 8
    endloop
  endfacet
  facet normal -1 -0 0
    outer loop
      vertex 57 17 16
      vertex 57 16 8
      vertex 57 16 16
    endloop
  endfacet
  facet normal 0 -1 0
    outer loop
      vertex 43.5 17 8
      vertex 57 17 16
      vertex 43.5 17 16
    endloop
  endfacet
  facet normal 0 -1 -0
    outer loop
      vertex 57 17 16
      vertex 43.5 17 8
      vertex 57 17 8
    endloop
  endfacet
  facet normal -0 0 1
    outer loop
      vertex 43.5 17 8
      vertex 57 16 8
      vertex 57 17 8
    endloop
  endfacet
  facet normal 0 0 1
    outer loop
      vertex 57 16 8
      vertex 43.5 17 8
      vertex 43.5 16 8
    endloop
  endfacet
  facet normal 0 1 -0
    outer loop
      vertex 57 16 8
      vertex 43.5 16 16
      vertex 57 16 16
    endloop
  endfacet
  facet normal 0 1 0
    outer loop
      vertex 43.5 16 16
      vertex 57 16 8
      vertex 43.5 16 8
    endloop
  endfacet
  facet normal 1 -0 0
    outer loop
      vertex 61.25 16 16
      vertex 61.25 17 8
      vertex 61.25 17 16
    endloop
  endfacet
  facet normal 1 0 0
    outer loop
      vertex 61.25 17 8
      vertex 61.25 16 16
      vertex 61.25 16 8
    endloop
  endfacet
  facet normal -1 0 0
    outer loop
      vertex 74.75 16 8
      vertex 74.75 17 16
      vertex 74.75 17 8
    endloop
  endfacet
  facet normal -1 -0 0
    outer loop
      vertex 74.75 17 16
      vertex 74.75 16 8
      vertex 74.75 16 16
    endloop
  endfacet
  facet normal 0 -1 0
    outer loop
      vertex 61.25 17 8
      vertex 74.75 17 16
      vertex 61.25 17 16
    endloop
  endfacet
  facet normal 0 -1 -0
    outer loop
      vertex 74.75 17 16
      vertex 61.25 17 8
      vertex 74.75 17 8
    endloop
  endfacet
  facet normal -0 0 1
    outer loop
      vertex 61.25 17 8
      vertex 74.75 16 8
      vertex 74.75 17 8
    endloop
  endfacet
  facet normal 0 0 1
    outer loop
      vertex 74.75 16 8
      vertex 61.25 17 8
      vertex 61.25 16 8
    endloop
  endfacet
  facet normal 0 1 -0
    outer loop
      vertex 74.75 16 8
      vertex 61.25 16 16
      vertex 74.75 16 16
    endloop
  endfacet
  facet normal 0 1 0
    outer loop
      vertex 61.25 16 16
      vertex 74.75 16 8
      vertex 61.25 16 8
    endloop
  endfacet
  facet normal 1 -0 0
    outer loop
      vertex 79 16 16
      vertex 79 17 8
      vertex 79 17 16
    endloop
  endfacet
  facet normal 1 0 0
    outer loop
      vertex 79 17 8
      vertex 79 16 16
      vertex 79 16 8
    endloop
  endfacet
  facet normal -1 0 0
    outer loop
      vertex 92.5 16 8
      vertex 92.5 17 16
      vertex 92.5 17 8
    endloop
  endfacet
  facet normal -1 -0 0
    outer loop
      vertex 92.5 17 16
      vertex 92.5 16 8
      vertex 92.5 16 16
    endloop
  endfacet
  facet normal 0 -1 0
    outer loop
      vertex 79 17 8
      vertex 92.5 17 16
      vertex 79 17 16
    endloop
  endfacet
  facet normal 0 -1 -0
    outer loop
      vertex 92.5 17 16
      vertex 79 17 8
      vertex 92.5 17 8
    endloop
  endfacet
  facet normal -0 0 1
    outer loop
      vertex 79 17 8
      vertex 92.5 16 8
      vertex 92.5 17 8
    endloop
  endfacet
  facet normal 0 0 1
    outer loop
      vertex 92.5 16 8
      vertex 79 17 8
      vertex 79 16 8
    endloop
  endfacet
  facet normal 0 1 -0
    outer loop
      vertex 92.5 16 8
      vertex 79 16 16
      vertex 92.5 16 16
    endloop
  endfacet
  facet normal 0 1 0
    outer loop
      vertex 79 16 16
      vertex 92.5 16 8
      vertex 79 16 8
    endloop
  endfacet
  facet normal 1 -0 0
    outer loop
      vertex 8 24 16
      vertex 8 26.4 1
      vertex 8 26.4 16
    endloop
  endfacet
  facet normal 1 0 0
    outer loop
      vertex 8 26.4 1
      vertex 8 24 16
      vertex 8 24 1
    endloop
  endfacet
  facet normal -1 0 0
    outer loop
      vertex 33.5 24 1
      vertex 33.5 26.4 16
      vertex 33.5 26.4 1
    endloop
  endfacet
  facet normal -1 -0 0
    outer loop
      vertex 33.5 26.4 16
      vertex 33.5 24 1
      vertex 33.5 24 16
    endloop
  endfacet
  facet normal 0 -1 0
    outer loop
      vertex 8 26.4 1
      vertex 33.5 26.4 16
      vertex 8 26.4 16
    endloop
  endfacet
  facet normal 0 -1 -0
    outer loop
      vertex 33.5 26.4 16
      vertex 8 26.4 1
      vertex 33.5 26.4 1
    endloop
  endfacet
  facet normal -0 0 1
    outer loop
      vertex 8 26.4 1
      vertex 33.5 24 1
      vertex 33.5 26.4 1
    endloop
  endfacet
  facet normal 0 0 1
    outer loop
      vertex 33.5 24 1
      vertex 8 26.4 1
      vertex 8 24 1
    endloop
  endfacet
  facet normal 0 1 -0
    outer loop
      vertex 33.5 24 1
      vertex 8 24 16
      vertex 33.5 24 16
    endloop
  endfacet
  facet normal 0 1 0
    outer loop
      vertex 8 24 16
      vertex 33.5 24 1
      vertex 8 24 1
    endloop
  endfacet
  facet normal 1 -0 0
    outer loop
      vertex 8 32 16
      vertex 8 34.4 1
      vertex 8 34.4 16
    endloop
  endfacet
  facet normal 1 0 0
    outer loop
      vertex 8 34.4 1
      vertex 8 32 16
      vertex 8 32 1
    endloop
  endfacet
  facet normal -1 0 0
    outer loop
      vertex 33.5 32 1
      vertex 33.5 34.4 16
      vertex 33.5 34.4 1
    endloop
  endfacet
  facet normal -1 -0 0
    outer loop
      vertex 33.5 34.4 16
      vertex 33.5 32 1
      vertex 33.5 32 16
    endloop
  endfacet
  facet normal -0 0 1
    outer loop
      vertex 8 34.4 1
      vertex 33.5 32 1
      vertex 33.5 34.4 1
    endloop
  endfacet
  facet normal 0 0 1
    outer loop
      vertex 33.5 32 1
      vertex 8 34.4 1
      vertex 8 32 1
    endloop
  endfacet
  facet normal 0 1 -0
    outer loop
      vertex 33.5 32 1
      vertex 8 32 16
      vertex 33.5 32 16
    endloop
  endfacet
  facet normal 0 1 0
    outer loop
      vertex 8 32 16
      vertex 33.5 32 1
      vertex 8 32 1
    endloop
  endfacet
  facet normal 0 -1 0
    outer loop
      vertex 8 34.4 1
      vertex 33.5 34.4 16
      vertex 8 34.4 16
    endloop
  endfacet
  facet normal 0 -1 -0
    outer loop
      vertex 33.5 34.4 16
      vertex 8 34.4 1
      vertex 33.5 34.4 1
    endloop
  endfacet
  facet normal 1 -0 0
    outer loop
      vertex 8 40 16
      vertex 8 42.4 1
      vertex 8 42.4 16
    endloop
  endfacet
  facet normal 1 0 0
    outer loop
      vertex 8 42.4 1
      vertex 8 40 16
      vertex 8 40 1
    endloop
  endfacet
  facet normal -1 0 0
    outer loop
      vertex 33.5 40 1
      vertex 33.5 42.4 16
      vertex 33.5 42.4 1
    endloop
  endfacet
  facet normal -1 -0 0
    outer loop
      vertex 33.5 42.4 16
      vertex 33.5 40 1
      vertex 33.5 40 16
    endloop
  endfacet
  facet normal 0 -1 0
    outer loop
      vertex 8 42.4 1
      vertex 33.5 42.4 16
      vertex 8 42.4 16
    endloop
  endfacet
  facet normal 0 -1 -0
    outer loop
      vertex 33.5 42.4 16
      vertex 8 42.4 1
      vertex 33.5 42.4 1
    endloop
  endfacet
  facet normal -0 0 1
    outer loop
      vertex 8 42.4 1
      vertex 33.5 40 1
      vertex 33.5 42.4 1
    endloop
  endfacet
  facet normal 0 0 1
    outer loop
      vertex 33.5 40 1
      vertex 8 42.4 1
      vertex 8 40 1
    endloop
  endfacet
  facet normal 0 1 -0
    outer loop
      vertex 33.5 40 1
      vertex 8 40 16
      vertex 33.5 40 16
    endloop
  endfacet
  facet normal 0 1 0
    outer loop
      vertex 8 40 16
      vertex 33.5 40 1
      vertex 8 40 1
    endloop
  endfacet
  facet normal 1 -0 0
    outer loop
      vertex 37 24 16
      vertex 37 26.4 1
      vertex 37 26.4 16
    endloop
  endfacet
  facet normal 1 0 0
    outer loop
      vertex 37 26.4 1
      vertex 37 24 16
      vertex 37 24 1
    endloop
  endfacet
  facet normal -1 0 0
    outer loop
      vertex 62.5 24 1
      vertex 62.5 26.4 16
      vertex 62.5 26.4 1
    endloop
  endfacet
  facet normal -1 -0 0
    outer loop
      vertex 62.5 26.4 16
      vertex 62.5 24 1
      vertex 62.5 24 16
    endloop
  endfacet
  facet normal 0 -1 0
    outer loop
      vertex 37 26.4 1
      vertex 62.5 26.4 16
      vertex 37 26.4 16
    endloop
  endfacet
  facet normal 0 -1 -0
    outer loop
      vertex 62.5 26.4 16
      vertex 37 26.4 1
      vertex 62.5 26.4 1
    endloop
  endfacet
  facet normal -0 0 1
    outer loop
      vertex 37 26.4 1
      vertex 62.5 24 1
      vertex 62.5 26.4 1
    endloop
  endfacet
  facet normal 0 0 1
    outer loop
      vertex 62.5 24 1
      vertex 37 26.4 1
      vertex 37 24 1
    endloop
  endfacet
  facet normal 0 1 -0
    outer loop
      vertex 62.5 24 1
      vertex 37 24 16
      vertex 62.5 24 16
    endloop
  endfacet
  facet normal 0 1 0
    outer loop
      vertex 37 24 16
      vertex 62.5 24 1
      vertex 37 24 1
    endloop
  endfacet
  facet normal 1 -0 0
    outer loop
      vertex 37 32 16
      vertex 37 34.4 1
      vertex 37 34.4 16
    endloop
  endfacet
  facet normal 1 0 0
    outer loop
      vertex 37 34.4 1
      vertex 37 32 16
      vertex 37 32 1
    endloop
  endfacet
  facet normal -1 0 0
    outer loop
      vertex 62.5 32 1
      vertex 62.5 34.4 16
      vertex 62.5 34.4 1
    endloop
  endfacet
  facet normal -1 -0 0
    outer loop
      vertex 62.5 34.4 16
      vertex 62.5 32 1
      vertex 62.5 32 16
    endloop
  endfacet
  facet normal -0 0 1
    outer loop
      vertex 37 34.4 1
      vertex 62.5 32 1
      vertex 62.5 34.4 1
    endloop
  endfacet
  facet normal 0 0 1
    outer loop
      vertex 62.5 32 1
      vertex 37 34.4 1
      vertex 37 32 1
    endloop
  endfacet
  facet normal 0 1 -0
    outer loop
      vertex 62.5 32 1
      vertex 37 32 16
      vertex 62.5 32 16
    endloop
  endfacet
  facet normal 0 1 0
    outer loop
      vertex 37 32 16
      vertex 62.5 32 1
      vertex 37 32 1
    endloop
  endfacet
  facet normal 0 -1 0
    outer loop
      vertex 37 34.4 1
      vertex 62.5 34.4 16
      vertex 37 34.4 16
    endloop
  endfacet
  facet normal 0 -1 -0
    outer loop
      vertex 62.5 34.4 16
      vertex 37 34.4 1
      vertex 62.5 34.4 1
    endloop
  endfacet
  facet normal 1 -0 0
    outer loop
      vertex 37 40 16
      vertex 37 42.4 1
      vertex 37 42.4 16
    endloop
  endfacet
  facet normal 1 0 0
    outer loop
      vertex 37 42.4 1
      vertex 37 40 16
      vertex 37 40 1
    endloop
  endfacet
  facet normal -1 0 0
    outer loop
      vertex 62.5 40 1
      vertex 62.5 42.4 16
      vertex 62.5 42.4 1
    endloop
  endfacet
  facet normal -1 -0 0
    outer loop
      vertex 62.5 42.4 16
      vertex 62.5 40 1
      vertex 62.5 40 16
    endloop
  endfacet
  facet normal 0 -1 0
    outer loop
      vertex 37 42.4 1
      vertex 62.5 42.4 16
      vertex 37 42.4 16
    endloop
  endfacet
  facet normal 0 -1 -0
    outer loop
      vertex 62.5 42.4 16
      vertex 37 42.4 1
      vertex 62.5 42.4 1
    endloop
  endfacet
  facet normal -0 0 1
    outer loop
      vertex 37 42.4 1
      vertex 62.5 40 1
      vertex 62.5 42.4 1
    endloop
  endfacet
  facet normal 0 0 1
    outer loop
      vertex 62.5 40 1
      vertex 37 42.4 1
      vertex 37 40 1
    endloop
  endfacet
  facet normal 0 1 -0
    outer loop
      vertex 62.5 40 1
      vertex 37 40 16
      vertex 62.5 40 16
    endloop
  endfacet
  facet normal 0 1 0
    outer loop
      vertex 37 40 16
      vertex 62.5 40 1
      vertex 37 40 1
    endloop
  endfacet
  facet normal 1 -0 0
    outer loop
      vertex 66 24 16
      vertex 66 26.4 1
      vertex 66 26.4 16
    endloop
  endfacet
  facet normal 1 0 0
    outer loop
      vertex 66 26.4 1
      vertex 66 24 16
      vertex 66 24 1
    endloop
  endfacet
  facet normal -1 0 0
    outer loop
      vertex 91.5 24 1
      vertex 91.5 26.4 16
      vertex 91.5 26.4 1
    endloop
  endfacet
  facet normal -1 -0 0
    outer loop
      vertex 91.5 26.4 16
      vertex 91.5 24 1
      vertex 91.5 24 16
    endloop
  endfacet
  facet normal -0 0 1
    outer loop
      vertex 66 26.4 1
      vertex 91.5 24 1
      vertex 91.5 26.4 1
    endloop
  endfacet
  facet normal 0 0 1
    outer loop
      vertex 91.5 24 1
      vertex 66 26.4 1
      vertex 66 24 1
    endloop
  endfacet
  facet normal 0 1 -0
    outer loop
      vertex 91.5 24 1
      vertex 66 24 16
      vertex 91.5 24 16
    endloop
  endfacet
  facet normal 0 1 0
    outer loop
      vertex 66 24 16
      vertex 91.5 24 1
      vertex 66 24 1
    endloop
  endfacet
  facet normal 0 -1 0
    outer loop
      vertex 66 26.4 1
      vertex 91.5 26.4 16
      vertex 66 26.4 16
    endloop
  endfacet
  facet normal 0 -1 -0
    outer loop
      vertex 91.5 26.4 16
      vertex 66 26.4 1
      vertex 91.5 26.4 1
    endloop
  endfacet
  facet normal 1 -0 0
    outer loop
      vertex 66 32 16
      vertex 66 34.4 1
      vertex 66 34.4 16
    endloop
  endfacet
  facet normal 1 0 0
    outer loop
      vertex 66 34.4 1
      vertex 66 32 16
      vertex 66 32 1
    endloop
  endfacet
  facet normal -1 0 0
    outer loop
      vertex 91.5 32 1
      vertex 91.5 34.4 16
      vertex 91.5 34.4 1
    endloop
  endfacet
  facet normal -1 -0 0
    outer loop
      vertex 91.5 34.4 16
      vertex 91.5 32 1
      vertex 91.5 32 16
    endloop
  endfacet
  facet normal -0 0 1
    outer loop
      vertex 66 34.4 1
      vertex 91.5 32 1
      vertex 91.5 34.4 1
    endloop
  endfacet
  facet normal 0 0 1
    outer loop
      vertex 91.5 32 1
      vertex 66 34.4 1
      vertex 66 32 1
    endloop
  endfacet
  facet normal 0 1 -0
    outer loop
      vertex 91.5 32 1
      vertex 66 32 16
      vertex 91.5 32 16
    endloop
  endfacet
  facet normal 0 1 0
    outer loop
      vertex 66 32 16
      vertex 91.5 32 1
      vertex 66 32 1
    endloop
  endfacet
  facet normal 0 -1 0
    outer loop
      vertex 66 34.4 1
      vertex 91.5 34.4 16
      vertex 66 34.4 16
    endloop
  endfacet
  facet normal 0 -1 -0
    outer loop
      vertex 91.5 34.4 16
      vertex 66 34.4 1
      vertex 91.5 34.4 1
    endloop
  endfacet
  facet normal 1 -0 0
    outer loop
      vertex 66 40 16
      vertex 66 42.4 1
      vertex 66 42.4 16
    endloop
  endfacet
  facet normal 1 0 0
    outer loop
      vertex 66 42.4 1
      vertex 66 40 16
      vertex 66 40 1
    endloop
  endfacet
  facet normal -1 0 0
    outer loop
      vertex 91.5 40 1
      vertex 91.5 42.4 16
      vertex 91.5 42.4 1
    endloop
  endfacet
  facet normal -1 -0 0
    outer loop
      vertex 91.5 42.4 16
      vertex 91.5 40 1
      vertex 91.5 40 16
    endloop
  endfacet
  facet normal 0 -1 0
    outer loop
      vertex 66 42.4 1
      vertex 91.5 42.4 16
      vertex 66 42.4 16
    endloop
  endfacet
  facet normal 0 -1 -0
    outer loop
      vertex 91.5 42.4 16
      vertex 66 42.4 1
      vertex 91.5 42.4 1
    endloop
  endfacet
  facet normal -0 0 1
    outer loop
      vertex 66 42.4 1
      vertex 91.5 40 1
      vertex 91.5 42.4 1
    endloop
  endfacet
  facet normal 0 0 1
    outer loop
      vertex 91.5 40 1
      vertex 66 42.4 1
      vertex 66 40 1
    endloop
  endfacet
  facet normal 0 1 -0
    outer loop
      vertex 91.5 40 1
      vertex 66 40 16
      vertex 91.5 40 16
    endloop
  endfacet
  facet normal 0 1 0
    outer loop
      vertex 66 40 16
      vertex 91.5 40 1
      vertex 66 40 1
    endloop
  endfacet
  facet normal 1 -0 0
    outer loop
      vertex 8 48 16
      vertex 8 52.5 6
      vertex 8 52.5 16
    endloop
  endfacet
  facet normal 1 0 0
    outer loop
      vertex 8 52.5 6
      vertex 8 48 16
      vertex 8 48 6
    endloop
  endfacet
  facet normal -1 0 0
    outer loop
      vertex 21 48 6
      vertex 21 52.5 16
      vertex 21 52.5 6
    endloop
  endfacet
  facet normal -1 -0 0
    outer loop
      vertex 21 52.5 16
      vertex 21 48 6
      vertex 21 48 16
    endloop
  endfacet
  facet normal 0 -1 0
    outer loop
      vertex 8 52.5 6
      vertex 21 52.5 16
      vertex 8 52.5 16
    endloop
  endfacet
  facet normal 0 -1 -0
    outer loop
      vertex 21 52.5 16
      vertex 8 52.5 6
      vertex 21 52.5 6
    endloop
  endfacet
  facet normal -0 0 1
    outer loop
      vertex 8 52.5 6
      vertex 21 48 6
      vertex 21 52.5 6
    endloop
  endfacet
  facet normal 0 0 1
    outer loop
      vertex 21 48 6
      vertex 8 52.5 6
      vertex 8 48 6
    endloop
  endfacet
  facet normal 0 1 -0
    outer loop
      vertex 21 48 6
      vertex 8 48 16
      vertex 21 48 16
    endloop
  endfacet
  facet normal 0 1 0
    outer loop
      vertex 8 48 16
      vertex 21 48 6
      vertex 8 48 6
    endloop
  endfacet
  facet normal 1 -0 0
    outer loop
      vertex 8 58 16
      vertex 8 62.5 6
      vertex 8 62.5 16
    endloop
  endfacet
  facet normal 1 0 0
    outer loop
      vertex 8 62.5 6
      vertex 8 58 16
      vertex 8 58 6
    endloop
  endfacet
  facet normal -1 0 0
    outer loop
      vertex 21 58 6
      vertex 21 62.5 16
      vertex 21 62.5 6
    endloop
  endfacet
  facet normal -1 -0 0
    outer loop
      vertex 21 62.5 16
      vertex 21 58 6
      vertex 21 58 16
    endloop
  endfacet
  facet normal -0 0 1
    outer loop
      vertex 8 62.5 6
      vertex 21 58 6
      vertex 21 62.5 6
    endloop
  endfacet
  facet normal 0 0 1
    outer loop
      vertex 21 58 6
      vertex 8 62.5 6
      vertex 8 58 6
    endloop
  endfacet
  facet normal 0 1 -0
    outer loop
      vertex 21 58 6
      vertex 8 58 16
      vertex 21 58 16
    endloop
  endfacet
  facet normal 0 1 0
    outer loop
      vertex 8 58 16
      vertex 21 58 6
      vertex 8 58 6
    endloop
  endfacet
  facet normal 0 -1 0
    outer loop
      vertex 8 62.5 6
      vertex 21 62.5 16
      vertex 8 62.5 16
    endloop
  endfacet
  facet normal 0 -1 -0
    outer loop
      vertex 21 62.5 16
      vertex 8 62.5 6
      vertex 21 62.5 6
    endloop
  endfacet
  facet normal 1 -0 0
    outer loop
      vertex 8 68 16
      vertex 8 72.5 6
      vertex 8 72.5 16
    endloop
  endfacet
  facet normal 1 0 0
    outer loop
      vertex 8 72.5 6
      vertex 8 68 16
      vertex 8 68 6
    endloop
  endfacet
  facet normal -1 0 0
    outer loop
      vertex 21 68 6
      vertex 21 72.5 16
      vertex 21 72.5 6
    endloop
  endfacet
  facet normal -1 -0 0
    outer loop
      vertex 21 72.5 16
      vertex 21 68 6
      vertex 21 68 16
    endloop
  endfacet
  facet normal 0 -1 0
    outer loop
      vertex 8 72.5 6
      vertex 21 72.5 16
      vertex 8 72.5 16
    endloop
  endfacet
  facet normal 0 -1 -0
    outer loop
      vertex 21 72.5 16
      vertex 8 72.5 6
      vertex 21 72.5 6
    endloop
  endfacet
  facet normal -0 0 1
    outer loop
      vertex 8 72.5 6
      vertex 21 68 6
      vertex 21 72.5 6
    endloop
  endfacet
  facet normal 0 0 1
    outer loop
      vertex 21 68 6
      vertex 8 72.5 6
      vertex 8 68 6
    endloop
  endfacet
  facet normal 0 1 -0
    outer loop
      vertex 21 68 6
      vertex 8 68 16
      vertex 21 68 16
    endloop
  endfacet
  facet normal 0 1 0
    outer loop
      vertex 8 68 16
      vertex 21 68 6
      vertex 8 68 6
    endloop
  endfacet
  facet normal 1 -0 0
    outer loop
      vertex 30 48 16
      vertex 30 52.5 6
      vertex 30 52.5 16
    endloop
  endfacet
  facet normal 1 0 0
    outer loop
      vertex 30 52.5 6
      vertex 30 48 16
      vertex 30 48 6
    endloop
  endfacet
  facet normal -1 0 0
    outer loop
      vertex 43 48 6
      vertex 43 52.5 16
      vertex 43 52.5 6
    endloop
  endfacet
  facet normal -1 -0 0
    outer loop
      vertex 43 52.5 16
      vertex 43 48 6
      vertex 43 48 16
    endloop
  endfacet
  facet normal 0 -1 0
    outer loop
      vertex 30 52.5 6
      vertex 43 52.5 16
      vertex 30 52.5 16
    endloop
  endfacet
  facet normal 0 -1 -0
    outer loop
      vertex 43 52.5 16
      vertex 30 52.5 6
      vertex 43 52.5 6
    endloop
  endfacet
  facet normal -0 0 1
    outer loop
      vertex 30 52.5 6
      vertex 43 48 6
      vertex 43 52.5 6
    endloop
  endfacet
  facet normal 0 0 1
    outer loop
      vertex 43 48 6
      vertex 30 52.5 6
      vertex 30 48 6
    endloop
  endfacet
  facet normal 0 1 -0
    outer loop
      vertex 43 48 6
      vertex 30 48 16
      vertex 43 48 16
    endloop
  endfacet
  facet normal 0 1 0
    outer loop
      vertex 30 48 16
      vertex 43 48 6
      vertex 30 48 6
    endloop
  endfacet
  facet normal 1 -0 0
    outer loop
      vertex 30 58 16
      vertex 30 62.5 6
      vertex 30 62.5 16
    endloop
  endfacet
  facet normal 1 0 0
    outer loop
      vertex 30 62.5 6
      vertex 30 58 16
      vertex 30 58 6
    endloop
  endfacet
  facet normal -1 0 0
    outer loop
      vertex 43 58 6
      vertex 43 62.5 16
      vertex 43 62.5 6
    endloop
  endfacet
  facet normal -1 -0 0
    outer loop
      vertex 43 62.5 16
      vertex 43 58 6
      vertex 43 58 16
    endloop
  endfacet
  facet normal -0 0 1
    outer loop
      vertex 30 62.5 6
      vertex 43 58 6
      vertex 43 62.5 6
    endloop
  endfacet
  facet normal 0 0 1
    outer loop
      vertex 43 58 6
      vertex 30 62.5 6
      vertex 30 58 6
    endloop
  endfacet
  facet normal 0 1 -0
    outer loop
      vertex 43 58 6
      vertex 30 58 16
      vertex 43 58 16
    endloop
  endfacet
  facet normal 0 1 0
    outer loop
      vertex 30 58 16
      vertex 43 58 6
      vertex 30 58 6
    endloop
  endfacet
  facet normal 0 -1 0
    outer loop
      vertex 30 62.5 6
      vertex 43 62.5 16
      vertex 30 62.5 16
    endloop
  endfacet
  facet normal 0 -1 -0
    outer loop
      vertex 43 62.5 16
      vertex 30 62.5 6
      vertex 43 62.5 6
    endloop
  endfacet
  facet normal 1 -0 0
    outer loop
      vertex 30 68 16
      vertex 30 72.5 6
      vertex 30 72.5 16
    endloop
  endfacet
  facet normal 1 0 0
    outer loop
      vertex 30 72.5 6
      vertex 30 68 16
      vertex 30 68 6
    endloop
  endfacet
  facet normal -1 0 0
    outer loop
      vertex 43 68 6
      vertex 43 72.5 16
      vertex 43 72.5 6
    endloop
  endfacet
  facet normal -1 -0 0
    outer loop
      vertex 43 72.5 16
      vertex 43 68 6
      vertex 43 68 16
    endloop
  endfacet
  facet normal -0 0 1
    outer loop
      vertex 30 72.5 6
      vertex 43 68 6
      vertex 43 72.5 6
    endloop
  endfacet
  facet normal 0 0 1
    outer loop
      vertex 43 68 6
      vertex 30 72.5 6
      vertex 30 68 6
    endloop
  endfacet
  facet normal 0 1 -0
    outer loop
      vertex 43 68 6
      vertex 30 68 16
      vertex 43 68 16
    endloop
  endfacet
  facet normal 0 1 0
    outer loop
      vertex 30 68 16
      vertex 43 68 6
      vertex 30 68 6
    endloop
  endfacet
  facet normal 0 -1 0
    outer loop
      vertex 30 72.5 6
      vertex 43 72.5 16
      vertex 30 72.5 16
    endloop
  endfacet
  facet normal 0 -1 -0
    outer loop
      vertex 43 72.5 16
      vertex 30 72.5 6
      vertex 43 72.5 6
    endloop
  endfacet
  facet normal 1 -0 0
    outer loop
      vertex 52 48 16
      vertex 52 52.5 6
      vertex 52 52.5 16
    endloop
  endfacet
  facet normal 1 0 0
    outer loop
      vertex 52 52.5 6
      vertex 52 48 16
      vertex 52 48 6
    endloop
  endfacet
  facet normal -1 0 0
    outer loop
      vertex 65 48 6
      vertex 65 52.5 16
      vertex 65 52.5 6
    endloop
  endfacet
  facet normal -1 -0 0
    outer loop
      vertex 65 52.5 16
      vertex 65 48 6
      vertex 65 48 16
    endloop
  endfacet
  facet normal -0 0 1
    outer loop
      vertex 52 52.5 6
      vertex 65 48 6
      vertex 65 52.5 6
    endloop
  endfacet
  facet normal 0 0 1
    outer loop
      vertex 65 48 6
      vertex 52 52.5 6
      vertex 52 48 6
    endloop
  endfacet
  facet normal 0 1 -0
    outer loop
      vertex 65 48 6
      vertex 52 48 16
      vertex 65 48 16
    endloop
  endfacet
  facet normal 0 1 0
    outer loop
      vertex 52 48 16
      vertex 65 48 6
      vertex 52 48 6
    endloop
  endfacet
  facet normal 0 -1 0
    outer loop
      vertex 52 52.5 6
      vertex 65 52.5 16
      vertex 52 52.5 16
    endloop
  endfacet
  facet normal 0 -1 -0
    outer loop
      vertex 65 52.5 16
      vertex 52 52.5 6
      vertex 65 52.5 6
    endloop
  endfacet
  facet normal 1 -0 0
    outer loop
      vertex 52 58 16
      vertex 52 62.5 6
      vertex 52 62.5 16
    endloop
  endfacet
  facet normal 1 0 0
    outer loop
      vertex 52 62.5 6
      vertex 52 58 16
      vertex 52 58 6
    endloop
  endfacet
  facet normal -1 0 0
    outer loop
      vertex 65 58 6
      vertex 65 62.5 16
      vertex 65 62.5 6
    endloop
  endfacet
  facet normal -1 -0 0
    outer loop
      vertex 65 62.5 16
      vertex 65 58 6
      vertex 65 58 16
    endloop
  endfacet
  facet normal -0 0 1
    outer loop
      vertex 52 62.5 6
      vertex 65 58 6
      vertex 65 62.5 6
    endloop
  endfacet
  facet normal 0 0 1
    outer loop
      vertex 65 58 6
      vertex 52 62.5 6
      vertex 52 58 6
    endloop
  endfacet
  facet normal 0 1 -0
    outer loop
      vertex 65 58 6
      vertex 52 58 16
      vertex 65 58 16
    endloop
  endfacet
  facet normal 0 1 0
    outer loop
      vertex 52 58 16
      vertex 65 58 6
      vertex 52 58 6
    endloop
  endfacet
  facet normal 0 -1 0
    outer loop
      vertex 52 62.5 6
      vertex 65 62.5 16
      vertex 52 62.5 16
    endloop
  endfacet
  facet normal 0 -1 -0
    outer loop
      vertex 65 62.5 16
      vertex 52 62.5 6
      vertex 65 62.5 6
    endloop
  endfacet
  facet normal 1 -0 0
    outer loop
      vertex 52 68 16
      vertex 52 72.5 6
      vertex 52 72.5 16
    endloop
  endfacet
  facet normal 1 0 0
    outer loop
      vertex 52 72.5 6
      vertex 52 68 16
      vertex 52 68 6
    endloop
  endfacet
  facet normal -1 0 0
    outer loop
      vertex 65 68 6
      vertex 65 72.5 16
      vertex 65 72.5 6
    endloop
  endfacet
  facet normal -1 -0 0
    outer loop
      vertex 65 72.5 16
      vertex 65 68 6
      vertex 65 68 16
    endloop
  endfacet
  facet normal -0 0 1
    outer loop
      vertex 52 72.5 6
      vertex 65 68 6
      vertex 65 72.5 6
    endloop
  endfacet
  facet normal 0 0 1
    outer loop
      vertex 65 68 6
      vertex 52 72.5 6
      vertex 52 68 6
    endloop
  endfacet
  facet normal 0 1 -0
    outer loop
      vertex 65 68 6
      vertex 52 68 16
      vertex 65 68 16
    endloop
  endfacet
  facet normal 0 1 0
    outer loop
      vertex 52 68 16
      vertex 65 68 6
      vertex 52 68 6
    endloop
  endfacet
  facet normal 0 -1 0
    outer loop
      vertex 52 72.5 6
      vertex 65 72.5 16
      vertex 52 72.5 16
    endloop
  endfacet
  facet normal 0 -1 -0
    outer loop
      vertex 65 72.5 16
      vertex 52 72.5 6
      vertex 65 72.5 6
    endloop
  endfacet
  facet normal 1 -0 0
    outer loop
      vertex 74 48 16
      vertex 74 52.5 6
      vertex 74 52.5 16
    endloop
  endfacet
  facet normal 1 0 0
    outer loop
      vertex 74 52.5 6
      vertex 74 48 16
      vertex 74 48 6
    endloop
  endfacet
  facet normal -1 0 0
    outer loop
      vertex 87 48 6
      vertex 87 52.5 16
      vertex 87 52.5 6
    endloop
  endfacet
  facet normal -1 -0 0
    outer loop
      vertex 87 52.5 16
      vertex 87 48 6
      vertex 87 48 16
    endloop
  endfacet
  facet normal -0 0 1
    outer loop
      vertex 74 52.5 6
      vertex 87 48 6
      vertex 87 52.5 6
    endloop
  endfacet
  facet normal 0 0 1
    outer loop
      vertex 87 48 6
      vertex 74 52.5 6
      vertex 74 48 6
    endloop
  endfacet
  facet normal 0 1 -0
    outer loop
      vertex 87 48 6
      vertex 74 48 16
      vertex 87 48 16
    endloop
  endfacet
  facet normal 0 1 0
    outer loop
      vertex 74 48 16
      vertex 87 48 6
      vertex 74 48 6
    endloop
  endfacet
  facet normal 0 -1 0
    outer loop
      vertex 74 52.5 6
      vertex 87 52.5 16
      vertex 74 52.5 16
    endloop
  endfacet
  facet normal 0 -1 -0
    outer loop
      vertex 87 52.5 16
      vertex 74 52.5 6
      vertex 87 52.5 6
    endloop
  endfacet
  facet normal 1 -0 0
    outer loop
      vertex 74 58 16
      vertex 74 62.5 6
      vertex 74 62.5 16
    endloop
  endfacet
  facet normal 1 0 0
    outer loop
      vertex 74 62.5 6
      vertex 74 58 16
      vertex 74 58 6
    endloop
  endfacet
  facet normal -1 0 0
    outer loop
      vertex 87 58 6
      vertex 87 62.5 16
      vertex 87 62.5 6
    endloop
  endfacet
  facet normal -1 -0 0
    outer loop
      vertex 87 62.5 16
      vertex 87 58 6
      vertex 87 58 16
    endloop
  endfacet
  facet normal 0 -1 0
    outer loop
      vertex 74 62.5 6
      vertex 87 62.5 16
      vertex 74 62.5 16
    endloop
  endfacet
  facet normal 0 -1 -0
    outer loop
      vertex 87 62.5 16
      vertex 74 62.5 6
      vertex 87 62.5 6
    endloop
  endfacet
  facet normal -0 0 1
    outer loop
      vertex 74 62.5 6
      vertex 87 58 6
      vertex 87 62.5 6
    endloop
  endfacet
  facet normal 0 0 1
    outer loop
      vertex 87 58 6
      vertex 74 62.5 6
      vertex 74 58 6
    endloop
  endfacet
  facet normal 0 1 -0
    outer loop
      vertex 87 58 6
      vertex 74 58 16
      vertex 87 58 16
    endloop
  endfacet
  facet normal 0 1 0
    outer loop
      vertex 74 58 16
      vertex 87 58 6
      vertex 74 58 6
    endloop
  endfacet
  facet normal 1 -0 0
    outer loop
      vertex 74 68 16
      vertex 74 72.5 6
      vertex 74 72.5 16
    endloop
  endfacet
  facet normal 1 0 0
    outer loop
      vertex 74 72.5 6
      vertex 74 68 16
      vertex 74 68 6
    endloop
  endfacet
  facet normal -1 0 0
    outer loop
      vertex 87 68 6
      vertex 87 72.5 16
      vertex 87 72.5 6
    endloop
  endfacet
  facet normal -1 -0 0
    outer loop
      vertex 87 72.5 16
      vertex 87 68 6
      vertex 87 68 16
    endloop
  endfacet
  facet normal 0 -1 0
    outer loop
      vertex 74 72.5 6
      vertex 87 72.5 16
      vertex 74 72.5 16
    endloop
  endfacet
  facet normal 0 -1 -0
    outer loop
      vertex 87 72.5 16
      vertex 74 72.5 6
      vertex 87 72.5 6
    endloop
  endfacet
  facet normal -0 0 1
    outer loop
      vertex 74 72.5 6
      vertex 87 68 6
      vertex 87 72.5 6
    endloop
  endfacet
  facet normal 0 0 1
    outer loop
      vertex 87 68 6
      vertex 74 72.5 6
      vertex 74 68 6
    endloop
  endfacet
  facet normal 0 1 -0
    outer loop
      vertex 87 68 6
      vertex 74 68 16
      vertex 87 68 16
    endloop
  endfacet
  facet normal 0 1 0
    outer loop
      vertex 74 68 16
      vertex 87 68 6
      vertex 74 68 6
    endloop
  endfacet
  facet normal -0 0 1
    outer loop
      vertex 8 58 16
      vertex 21 52.5 16
      vertex 21 58 16
    endloop
  endfacet
  facet normal 0 0 1
    outer loop
      vertex 21 52.5 16
      vertex 8 58 16
      vertex 8 52.5 16
    endloop
  endfacet
  facet normal -0 0 1
    outer loop
      vertex 8 68 16
      vertex 21 62.5 16
      vertex 21 68 16
    endloop
  endfacet
  facet normal 0 0 1
    outer loop
      vertex 21 62.5 16
      vertex 8 68 16
      vertex 8 62.5 16
    endloop
  endfacet
  facet normal -0 0 1
    outer loop
      vertex 8 16 16
      vertex 21.5 9 16
      vertex 21.5 16 16
    endloop
  endfacet
  facet normal 0 0 1
    outer loop
      vertex 21.5 9 16
      vertex 8 16 16
      vertex 8 9 16
    endloop
  endfacet
  facet normal -0 0 1
    outer loop
      vertex 8 32 16
      vertex 33.5 26.4 16
      vertex 33.5 32 16
    endloop
  endfacet
  facet normal 0 0 1
    outer loop
      vertex 33.5 26.4 16
      vertex 8 32 16
      vertex 8 26.4 16
    endloop
  endfacet
  facet normal -0 0 1
    outer loop
      vertex 8 40 16
      vertex 33.5 34.4 16
      vertex 33.5 40 16
    endloop
  endfacet
  facet normal 0 0 1
    outer loop
      vertex 33.5 34.4 16
      vertex 8 40 16
      vertex 8 34.4 16
    endloop
  endfacet
  facet normal -0 0 1
    outer loop
      vertex 25.75 16 16
      vertex 39.25 9 16
      vertex 39.25 16 16
    endloop
  endfacet
  facet normal 0 0 1
    outer loop
      vertex 39.25 9 16
      vertex 25.75 16 16
      vertex 25.75 9 16
    endloop
  endfacet
  facet normal -0 0 1
    outer loop
      vertex 43.5 16 16
      vertex 57 9 16
      vertex 57 16 16
    endloop
  endfacet
  facet normal 0 0 1
    outer loop
      vertex 57 9 16
      vertex 43.5 16 16
      vertex 43.5 9 16
    endloop
  endfacet
  facet normal -0 0 1
    outer loop
      vertex 37 32 16
      vertex 62.5 26.4 16
      vertex 62.5 32 16
    endloop
  endfacet
  facet normal 0 0 1
    outer loop
      vertex 62.5 26.4 16
      vertex 37 32 16
      vertex 37 26.4 16
    endloop
  endfacet
  facet normal -0 0 1
    outer loop
      vertex 37 40 16
      vertex 62.5 34.4 16
      vertex 62.5 40 16
    endloop
  endfacet
  facet normal 0 0 1
    outer loop
      vertex 62.5 34.4 16
      vertex 37 40 16
      vertex 37 34.4 16
    endloop
  endfacet
  facet normal -0 0 1
    outer loop
      vertex 52 48 16
      vertex 62.5 42.4 16
      vertex 65 48 16
    endloop
  endfacet
  facet normal 0 0 1
    outer loop
      vertex 43 58 16
      vertex 52 58 16
      vertex 43 62.5 16
    endloop
  endfacet
  facet normal 0 0 1
    outer loop
      vertex 52 58 16
      vertex 43 58 16
      vertex 52 52.5 16
    endloop
  endfacet
  facet normal 0 0 1
    outer loop
      vertex 43 52.5 16
      vertex 52 52.5 16
      vertex 43 58 16
    endloop
  endfacet
  facet normal 0 0 1
    outer loop
      vertex 52 52.5 16
      vertex 43 52.5 16
      vertex 52 48 16
    endloop
  endfacet
  facet normal 0 0 1
    outer loop
      vertex 43 48 16
      vertex 52 48 16
      vertex 43 52.5 16
    endloop
  endfacet
  facet normal 0 0 1
    outer loop
      vertex 37 42.4 16
      vertex 52 48 16
      vertex 43 48 16
    endloop
  endfacet
  facet normal 0 0 1
    outer loop
      vertex 52 48 16
      vertex 37 42.4 16
      vertex 62.5 42.4 16
    endloop
  endfacet
  facet normal 0 0 1
    outer loop
      vertex 33.5 40 16
      vertex 37 40 16
      vertex 37 42.4 16
    endloop
  endfacet
  facet normal 0 0 1
    outer loop
      vertex 37 40 16
      vertex 33.5 40 16
      vertex 37 34.4 16
    endloop
  endfacet
  facet normal 0 0 1
    outer loop
      vertex 37 34.4 16
      vertex 33.5 34.4 16
      vertex 37 32 16
    endloop
  endfacet
  facet normal 0 0 1
    outer loop
      vertex 33.5 32 16
      vertex 37 32 16
      vertex 33.5 34.4 16
    endloop
  endfacet
  facet normal 0 0 1
    outer loop
      vertex 33.5 40 16
      vertex 37 42.4 16
      vertex 33.5 42.4 16
    endloop
  endfacet
  facet normal -0 0 1
    outer loop
      vertex 30 48 16
      vertex 37 42.4 16
      vertex 43 48 16
    endloop
  endfacet
  facet normal 0 0 1
    outer loop
      vertex 37 42.4 16
      vertex 30 48 16
      vertex 33.5 42.4 16
    endloop
  endfacet
  facet normal 0 0 1
    outer loop
      vertex 21 58 16
      vertex 30 58 16
      vertex 21 62.5 16
    endloop
  endfacet
  facet normal 0 0 1
    outer loop
      vertex 30 58 16
      vertex 21 58 16
      vertex 30 52.5 16
    endloop
  endfacet
  facet normal 0 0 1
    outer loop
      vertex 21 52.5 16
      vertex 30 52.5 16
      vertex 21 58 16
    endloop
  endfacet
  facet normal 0 0 1
    outer loop
      vertex 30 52.5 16
      vertex 21 52.5 16
      vertex 30 48 16
    endloop
  endfacet
  facet normal 0 0 1
    outer loop
      vertex 21 48 16
      vertex 30 48 16
      vertex 21 52.5 16
    endloop
  endfacet
  facet normal 0 0 1
    outer loop
      vertex 30 48 16
      vertex 21 48 16
      vertex 33.5 42.4 16
    endloop
  endfacet
  facet normal 0 0 1
    outer loop
      vertex 8 42.4 16
      vertex 21 48 16
      vertex 8 48 16
    endloop
  endfacet
  facet normal 0 0 1
    outer loop
      vertex 21 48 16
      vertex 8 42.4 16
      vertex 33.5 42.4 16
    endloop
  endfacet
  facet normal -0 0 1
    outer loop
      vertex 52 58 16
      vertex 65 52.5 16
      vertex 65 58 16
    endloop
  endfacet
  facet normal 0 0 1
    outer loop
      vertex 65 52.5 16
      vertex 52 58 16
      vertex 52 52.5 16
    endloop
  endfacet
  facet normal -0 0 1
    outer loop
      vertex 52 68 16
      vertex 65 62.5 16
      vertex 65 68 16
    endloop
  endfacet
  facet normal 0 0 1
    outer loop
      vertex 65 62.5 16
      vertex 52 68 16
      vertex 52 62.5 16
    endloop
  endfacet
  facet normal -0 0 1
    outer loop
      vertex 61.25 16 16
      vertex 74.75 9 16
      vertex 74.75 16 16
    endloop
  endfacet
  facet normal 0 0 1
    outer loop
      vertex 74.75 9 16
      vertex 61.25 16 16
      vertex 61.25 9 16
    endloop
  endfacet
  facet normal -0 0 1
    outer loop
      vertex 74 58 16
      vertex 87 52.5 16
      vertex 87 58 16
    endloop
  endfacet
  facet normal 0 0 1
    outer loop
      vertex 87 52.5 16
      vertex 74 58 16
      vertex 74 52.5 16
    endloop
  endfacet
  facet normal -0 0 1
    outer loop
      vertex 74 68 16
      vertex 87 62.5 16
      vertex 87 68 16
    endloop
  endfacet
  facet normal 0 0 1
    outer loop
      vertex 87 62.5 16
      vertex 74 68 16
      vertex 74 62.5 16
    endloop
  endfacet
  facet normal -0 0 1
    outer loop
      vertex 66 32 16
      vertex 91.5 26.4 16
      vertex 91.5 32 16
    endloop
  endfacet
  facet normal 0 0 1
    outer loop
      vertex 91.5 26.4 16
      vertex 66 32 16
      vertex 66 26.4 16
    endloop
  endfacet
  facet normal -0 0 1
    outer loop
      vertex 66 40 16
      vertex 91.5 34.4 16
      vertex 91.5 40 16
    endloop
  endfacet
  facet normal 0 0 1
    outer loop
      vertex 91.5 34.4 16
      vertex 66 40 16
      vertex 66 34.4 16
    endloop
  endfacet
  facet normal -0 0 1
    outer loop
      vertex 79 16 16
      vertex 92.5 9 16
      vertex 92.5 16 16
    endloop
  endfacet
  facet normal 0 0 1
    outer loop
      vertex 92.5 9 16
      vertex 79 16 16
      vertex 79 9 16
    endloop
  endfacet
  facet normal 0 0 1
    outer loop
      vertex 93 76 16
      vertex 92.5 17 16
      vertex 93 5 16
    endloop
  endfacet
  facet normal 0 0 1
    outer loop
      vertex 93 76 16
      vertex 91.5 42.4 16
      vertex 92.5 17 16
    endloop
  endfacet
  facet normal 0 0 1
    outer loop
      vertex 87 68 16
      vertex 93 76 16
      vertex 87 72.5 16
    endloop
  endfacet
  facet normal 0 0 1
    outer loop
      vertex 93 76 16
      vertex 74 72.5 16
      vertex 87 72.5 16
    endloop
  endfacet
  facet normal 0 0 1
    outer loop
      vertex 65 68 16
      vertex 74 68 16
      vertex 74 72.5 16
    endloop
  endfacet
  facet normal 0 0 1
    outer loop
      vertex 74 68 16
      vertex 65 68 16
      vertex 74 62.5 16
    endloop
  endfacet
  facet normal 0 0 1
    outer loop
      vertex 74 62.5 16
      vertex 65 62.5 16
      vertex 74 58 16
    endloop
  endfacet
  facet normal 0 0 1
    outer loop
      vertex 65 58 16
      vertex 74 58 16
      vertex 65 62.5 16
    endloop
  endfacet
  facet normal 0 0 1
    outer loop
      vertex 65 52.5 16
      vertex 74 52.5 16
      vertex 65 58 16
    endloop
  endfacet
  facet normal 0 0 1
    outer loop
      vertex 62.5 40 16
      vertex 66 40 16
      vertex 66 42.4 16
    endloop
  endfacet
  facet normal 0 0 1
    outer loop
      vertex 66 40 16
      vertex 62.5 40 16
      vertex 66 34.4 16
    endloop
  endfacet
  facet normal 0 0 1
    outer loop
      vertex 66 34.4 16
      vertex 62.5 34.4 16
      vertex 66 32 16
    endloop
  endfacet
  facet normal 0 0 1
    outer loop
      vertex 62.5 32 16
      vertex 66 32 16
      vertex 62.5 34.4 16
    endloop
  endfacet
  facet normal 0 0 1
    outer loop
      vertex 74 62.5 16
      vertex 65 68 16
      vertex 65 62.5 16
    endloop
  endfacet
  facet normal 0 0 1
    outer loop
      vertex 65 68 16
      vertex 74 72.5 16
      vertex 65 72.5 16
    endloop
  endfacet
  facet normal 0 0 1
    outer loop
      vertex 93 76 16
      vertex 65 72.5 16
      vertex 74 72.5 16
    endloop
  endfacet
  facet normal 0 0 1
    outer loop
      vertex 93 76 16
      vertex 52 72.5 16
      vertex 65 72.5 16
    endloop
  endfacet
  facet normal -0 0 1
    outer loop
      vertex 43 72.5 16
      vertex 52 68 16
      vertex 52 72.5 16
    endloop
  endfacet
  facet normal 0 0 1
    outer loop
      vertex 43 68 16
      vertex 52 68 16
      vertex 43 72.5 16
    endloop
  endfacet
  facet normal 0 0 1
    outer loop
      vertex 52 68 16
      vertex 43 68 16
      vertex 52 62.5 16
    endloop
  endfacet
  facet normal 0 0 1
    outer loop
      vertex 43 62.5 16
      vertex 52 62.5 16
      vertex 43 68 16
    endloop
  endfacet
  facet normal 0 0 1
    outer loop
      vertex 52 62.5 16
      vertex 43 62.5 16
      vertex 52 58 16
    endloop
  endfacet
  facet normal 0 0 1
    outer loop
      vertex 93 76 16
      vertex 43 72.5 16
      vertex 52 72.5 16
    endloop
  endfacet
  facet normal -0 0 1
    outer loop
      vertex 5 76 16
      vertex 43 72.5 16
      vertex 93 76 16
    endloop
  endfacet
  facet normal -0 0 1
    outer loop
      vertex 21 72.5 16
      vertex 30 68 16
      vertex 30 72.5 16
    endloop
  endfacet
  facet normal 0 0 1
    outer loop
      vertex 21 68 16
      vertex 30 68 16
      vertex 21 72.5 16
    endloop
  endfacet
  facet normal 0 0 1
    outer loop
      vertex 30 68 16
      vertex 21 68 16
      vertex 30 62.5 16
    endloop
  endfacet
  facet normal 0 0 1
    outer loop
      vertex 21 62.5 16
      vertex 30 62.5 16
      vertex 21 68 16
    endloop
  endfacet
  facet normal 0 0 1
    outer loop
      vertex 30 62.5 16
      vertex 21 62.5 16
      vertex 30 58 16
    endloop
  endfacet
  facet normal 0 0 1
    outer loop
      vertex 43 72.5 16
      vertex 5 76 16
      vertex 30 72.5 16
    endloop
  endfacet
  facet normal 0 0 1
    outer loop
      vertex 30 72.5 16
      vertex 5 76 16
      vertex 21 72.5 16
    endloop
  endfacet
  facet normal 0 0 1
    outer loop
      vertex 5 76 16
      vertex 8 68 16
      vertex 8 72.5 16
    endloop
  endfacet
  facet normal 0 0 1
    outer loop
      vertex 8 68 16
      vertex 5 76 16
      vertex 8 62.5 16
    endloop
  endfacet
  facet normal 0 0 1
    outer loop
      vertex 8 62.5 16
      vertex 5 76 16
      vertex 8 58 16
    endloop
  endfacet
  facet normal 0 0 1
    outer loop
      vertex 8 58 16
      vertex 5 76 16
      vertex 8 52.5 16
    endloop
  endfacet
  facet normal 0 0 1
    outer loop
      vertex 8 52.5 16
      vertex 5 76 16
      vertex 8 48 16
    endloop
  endfacet
  facet normal 0 0 1
    outer loop
      vertex 8 48 16
      vertex 5 76 16
      vertex 8 42.4 16
    endloop
  endfacet
  facet normal 0 0 1
    outer loop
      vertex 8 42.4 16
      vertex 5 76 16
      vertex 8 40 16
    endloop
  endfacet
  facet normal 0 0 1
    outer loop
      vertex 5 5 16
      vertex 8 40 16
      vertex 5 76 16
    endloop
  endfacet
  facet normal 0 0 1
    outer loop
      vertex 8 40 16
      vertex 5 5 16
      vertex 8 34.4 16
    endloop
  endfacet
  facet normal 0 0 1
    outer loop
      vertex 8 34.4 16
      vertex 5 5 16
      vertex 8 32 16
    endloop
  endfacet
  facet normal 0 0 1
    outer loop
      vertex 8 32 16
      vertex 5 5 16
      vertex 8 26.4 16
    endloop
  endfacet
  facet normal 0 0 1
    outer loop
      vertex 8 26.4 16
      vertex 5 5 16
      vertex 8 24 16
    endloop
  endfacet
  facet normal 0 0 1
    outer loop
      vertex 8 24 16
      vertex 5 5 16
      vertex 8 17 16
    endloop
  endfacet
  facet normal 0 0 1
    outer loop
      vertex 8 17 16
      vertex 5 5 16
      vertex 8 16 16
    endloop
  endfacet
  facet normal 0 0 1
    outer loop
      vertex 8 16 16
      vertex 5 5 16
      vertex 8 9 16
    endloop
  endfacet
  facet normal 0 0 1
    outer loop
      vertex 21 72.5 16
      vertex 5 76 16
      vertex 8 72.5 16
    endloop
  endfacet
  facet normal -0 0 1
    outer loop
      vertex 92.5 16 16
      vertex 93 5 16
      vertex 92.5 17 16
    endloop
  endfacet
  facet normal -0 0 1
    outer loop
      vertex 92.5 9 16
      vertex 93 5 16
      vertex 92.5 16 16
    endloop
  endfacet
  facet normal -0 0 1
    outer loop
      vertex 92.5 8 16
      vertex 93 5 16
      vertex 92.5 9 16
    endloop
  endfacet
  facet normal -0 0 1
    outer loop
      vertex 79 8 16
      vertex 93 5 16
      vertex 92.5 8 16
    endloop
  endfacet
  facet normal 0 0 1
    outer loop
      vertex 74.75 9 16
      vertex 79 9 16
      vertex 74.75 16 16
    endloop
  endfacet
  facet normal 0 0 1
    outer loop
      vertex 79 9 16
      vertex 74.75 9 16
      vertex 79 8 16
    endloop
  endfacet
  facet normal 0 0 1
    outer loop
      vertex 74.75 8 16
      vertex 79 8 16
      vertex 74.75 9 16
    endloop
  endfacet
  facet normal -0 0 1
    outer loop
      vertex 74.75 8 16
      vertex 93 5 16
      vertex 79 8 16
    endloop
  endfacet
  facet normal -0 0 1
    outer loop
      vertex 61.25 8 16
      vertex 93 5 16
      vertex 74.75 8 16
    endloop
  endfacet
  facet normal 0 0 1
    outer loop
      vertex 57 9 16
      vertex 61.25 9 16
      vertex 57 16 16
    endloop
  endfacet
  facet normal 0 0 1
    outer loop
      vertex 61.25 9 16
      vertex 57 9 16
      vertex 61.25 8 16
    endloop
  endfacet
  facet normal 0 0 1
    outer loop
      vertex 57 8 16
      vertex 61.25 8 16
      vertex 57 9 16
    endloop
  endfacet
  facet normal -0 0 1
    outer loop
      vertex 57 8 16
      vertex 93 5 16
      vertex 61.25 8 16
    endloop
  endfacet
  facet normal -0 0 1
    outer loop
      vertex 43.5 8 16
      vertex 93 5 16
      vertex 57 8 16
    endloop
  endfacet
  facet normal 0 0 1
    outer loop
      vertex 39.25 9 16
      vertex 43.5 9 16
      vertex 39.25 16 16
    endloop
  endfacet
  facet normal 0 0 1
    outer loop
      vertex 43.5 9 16
      vertex 39.25 9 16
      vertex 43.5 8 16
    endloop
  endfacet
  facet normal 0 0 1
    outer loop
      vertex 39.25 8 16
      vertex 43.5 8 16
      vertex 39.25 9 16
    endloop
  endfacet
  facet normal 0 0 1
    outer loop
      vertex 5 5 16
      vertex 43.5 8 16
      vertex 39.25 8 16
    endloop
  endfacet
  facet normal 0 0 1
    outer loop
      vertex 5 5 16
      vertex 39.25 8 16
      vertex 25.75 8 16
    endloop
  endfacet
  facet normal 0 0 1
    outer loop
      vertex 21.5 9 16
      vertex 25.75 9 16
      vertex 21.5 16 16
    endloop
  endfacet
  facet normal 0 0 1
    outer loop
      vertex 25.75 9 16
      vertex 21.5 9 16
      vertex 25.75 8 16
    endloop
  endfacet
  facet normal 0 0 1
    outer loop
      vertex 21.5 8 16
      vertex 25.75 8 16
      vertex 21.5 9 16
    endloop
  endfacet
  facet normal 0 0 1
    outer loop
      vertex 5 5 16
      vertex 25.75 8 16
      vertex 21.5 8 16
    endloop
  endfacet
  facet normal 0 0 1
    outer loop
      vertex 5 5 16
      vertex 21.5 8 16
      vertex 8 8 16
    endloop
  endfacet
  facet normal 0 0 1
    outer loop
      vertex 43.5 8 16
      vertex 5 5 16
      vertex 93 5 16
    endloop
  endfacet
  facet normal 0 0 1
    outer loop
      vertex 8 9 16
      vertex 5 5 16
      vertex 8 8 16
    endloop
  endfacet
  facet normal -0 0 1
    outer loop
      vertex 91.5 40 16
      vertex 92.5 17 16
      vertex 91.5 42.4 16
    endloop
  endfacet
  facet normal -0 0 1
    outer loop
      vertex 91.5 34.4 16
      vertex 92.5 17 16
      vertex 91.5 40 16
    endloop
  endfacet
  facet normal -0 0 1
    outer loop
      vertex 91.5 32 16
      vertex 92.5 17 16
      vertex 91.5 34.4 16
    endloop
  endfacet
  facet normal -0 0 1
    outer loop
      vertex 91.5 26.4 16
      vertex 92.5 17 16
      vertex 91.5 32 16
    endloop
  endfacet
  facet normal -0 0 1
    outer loop
      vertex 91.5 24 16
      vertex 92.5 17 16
      vertex 91.5 26.4 16
    endloop
  endfacet
  facet normal 0 0 1
    outer loop
      vertex 91.5 24 16
      vertex 79 17 16
      vertex 92.5 17 16
    endloop
  endfacet
  facet normal -0 0 1
    outer loop
      vertex 74.75 17 16
      vertex 79 16 16
      vertex 79 17 16
    endloop
  endfacet
  facet normal 0 0 1
    outer loop
      vertex 74.75 16 16
      vertex 79 16 16
      vertex 74.75 17 16
    endloop
  endfacet
  facet normal 0 0 1
    outer loop
      vertex 79 16 16
      vertex 74.75 16 16
      vertex 79 9 16
    endloop
  endfacet
  facet normal -0 0 1
    outer loop
      vertex 66 24 16
      vertex 79 17 16
      vertex 91.5 24 16
    endloop
  endfacet
  facet normal 0 0 1
    outer loop
      vertex 79 17 16
      vertex 66 24 16
      vertex 74.75 17 16
    endloop
  endfacet
  facet normal 0 0 1
    outer loop
      vertex 74 58 16
      vertex 65 58 16
      vertex 74 52.5 16
    endloop
  endfacet
  facet normal 0 0 1
    outer loop
      vertex 74 52.5 16
      vertex 65 52.5 16
      vertex 74 48 16
    endloop
  endfacet
  facet normal 0 0 1
    outer loop
      vertex 65 48 16
      vertex 74 48 16
      vertex 65 52.5 16
    endloop
  endfacet
  facet normal 0 0 1
    outer loop
      vertex 74 48 16
      vertex 65 48 16
      vertex 66 42.4 16
    endloop
  endfacet
  facet normal 0 0 1
    outer loop
      vertex 62.5 42.4 16
      vertex 66 42.4 16
      vertex 65 48 16
    endloop
  endfacet
  facet normal 0 0 1
    outer loop
      vertex 66 42.4 16
      vertex 62.5 42.4 16
      vertex 62.5 40 16
    endloop
  endfacet
  facet normal 0 0 1
    outer loop
      vertex 66 34.4 16
      vertex 62.5 40 16
      vertex 62.5 34.4 16
    endloop
  endfacet
  facet normal 0 0 1
    outer loop
      vertex 66 32 16
      vertex 62.5 32 16
      vertex 66 26.4 16
    endloop
  endfacet
  facet normal 0 0 1
    outer loop
      vertex 62.5 26.4 16
      vertex 66 26.4 16
      vertex 62.5 32 16
    endloop
  endfacet
  facet normal 0 0 1
    outer loop
      vertex 66 26.4 16
      vertex 62.5 26.4 16
      vertex 66 24 16
    endloop
  endfacet
  facet normal 0 0 1
    outer loop
      vertex 62.5 24 16
      vertex 66 24 16
      vertex 62.5 26.4 16
    endloop
  endfacet
  facet normal 0 0 1
    outer loop
      vertex 61.25 17 16
      vertex 66 24 16
      vertex 62.5 24 16
    endloop
  endfacet
  facet normal 0 0 1
    outer loop
      vertex 66 24 16
      vertex 61.25 17 16
      vertex 74.75 17 16
    endloop
  endfacet
  facet normal -0 0 1
    outer loop
      vertex 57 17 16
      vertex 61.25 16 16
      vertex 61.25 17 16
    endloop
  endfacet
  facet normal 0 0 1
    outer loop
      vertex 57 16 16
      vertex 61.25 16 16
      vertex 57 17 16
    endloop
  endfacet
  facet normal 0 0 1
    outer loop
      vertex 61.25 16 16
      vertex 57 16 16
      vertex 61.25 9 16
    endloop
  endfacet
  facet normal 0 0 1
    outer loop
      vertex 62.5 24 16
      vertex 57 17 16
      vertex 61.25 17 16
    endloop
  endfacet
  facet normal 0 0 1
    outer loop
      vertex 62.5 24 16
      vertex 43.5 17 16
      vertex 57 17 16
    endloop
  endfacet
  facet normal -0 0 1
    outer loop
      vertex 39.25 17 16
      vertex 43.5 16 16
      vertex 43.5 17 16
    endloop
  endfacet
  facet normal 0 0 1
    outer loop
      vertex 39.25 16 16
      vertex 43.5 16 16
      vertex 39.25 17 16
    endloop
  endfacet
  facet normal 0 0 1
    outer loop
      vertex 43.5 16 16
      vertex 39.25 16 16
      vertex 43.5 9 16
    endloop
  endfacet
  facet normal -0 0 1
    outer loop
      vertex 37 24 16
      vertex 43.5 17 16
      vertex 62.5 24 16
    endloop
  endfacet
  facet normal 0 0 1
    outer loop
      vertex 43.5 17 16
      vertex 37 24 16
      vertex 39.25 17 16
    endloop
  endfacet
  facet normal 0 0 1
    outer loop
      vertex 37 34.4 16
      vertex 33.5 40 16
      vertex 33.5 34.4 16
    endloop
  endfacet
  facet normal 0 0 1
    outer loop
      vertex 37 32 16
      vertex 33.5 32 16
      vertex 37 26.4 16
    endloop
  endfacet
  facet normal 0 0 1
    outer loop
      vertex 33.5 26.4 16
      vertex 37 26.4 16
      vertex 33.5 32 16
    endloop
  endfacet
  facet normal 0 0 1
    outer loop
      vertex 37 26.4 16
      vertex 33.5 26.4 16
      vertex 37 24 16
    endloop
  endfacet
  facet normal 0 0 1
    outer loop
      vertex 33.5 24 16
      vertex 37 24 16
      vertex 33.5 26.4 16
    endloop
  endfacet
  facet normal 0 0 1
    outer loop
      vertex 37 24 16
      vertex 33.5 24 16
      vertex 39.25 17 16
    endloop
  endfacet
  facet normal 0 0 1
    outer loop
      vertex 33.5 24 16
      vertex 25.75 17 16
      vertex 39.25 17 16
    endloop
  endfacet
  facet normal -0 0 1
    outer loop
      vertex 21.5 17 16
      vertex 25.75 16 16
      vertex 25.75 17 16
    endloop
  endfacet
  facet normal 0 0 1
    outer loop
      vertex 21.5 16 16
      vertex 25.75 16 16
      vertex 21.5 17 16
    endloop
  endfacet
  facet normal 0 0 1
    outer loop
      vertex 25.75 16 16
      vertex 21.5 16 16
      vertex 25.75 9 16
    endloop
  endfacet
  facet normal 0 0 1
    outer loop
      vertex 33.5 24 16
      vertex 21.5 17 16
      vertex 25.75 17 16
    endloop
  endfacet
  facet normal -0 0 1
    outer loop
      vertex 8 24 16
      vertex 21.5 17 16
      vertex 33.5 24 16
    endloop
  endfacet
  facet normal 0 0 1
    outer loop
      vertex 21.5 17 16
      vertex 8 24 16
      vertex 8 17 16
    endloop
  endfacet
  facet normal 0 0 1
    outer loop
      vertex 87 62.5 16
      vertex 93 76 16
      vertex 87 68 16
    endloop
  endfacet
  facet normal 0 0 1
    outer loop
      vertex 87 58 16
      vertex 93 76 16
      vertex 87 62.5 16
    endloop
  endfacet
  facet normal 0 0 1
    outer loop
      vertex 93 76 16
      vertex 87 58 16
      vertex 91.5 42.4 16
    endloop
  endfacet
  facet normal -0 0 1
    outer loop
      vertex 87 52.5 16
      vertex 91.5 42.4 16
      vertex 87 58 16
    endloop
  endfacet
  facet normal -0 0 1
    outer loop
      vertex 87 48 16
      vertex 91.5 42.4 16
      vertex 87 52.5 16
    endloop
  endfacet
  facet normal -0 0 1
    outer loop
      vertex 74 48 16
      vertex 91.5 42.4 16
      vertex 87 48 16
    endloop
  endfacet
  facet normal 0 0 1
    outer loop
      vertex 91.5 42.4 16
      vertex 74 48 16
      vertex 66 42.4 16
    endloop
  endfacet
  facet normal -0 0 1
    outer loop
      vertex 30 58 16
      vertex 43 52.5 16
      vertex 43 58 16
    endloop
  endfacet
  facet normal 0 0 1
    outer loop
      vertex 43 52.5 16
      vertex 30 58 16
      vertex 30 52.5 16
    endloop
  endfacet
  facet normal -0 0 1
    outer loop
      vertex 30 68 16
      vertex 43 62.5 16
      vertex 43 68 16
    endloop
  endfacet
  facet normal 0 0 1
    outer loop
      vertex 43 62.5 16
      vertex 30 68 16
      vertex 30 62.5 16
    endloop
  endfacet
  facet normal 1 -0 0
    outer loop
      vertex 98 0 11
      vertex 98 81 0
      vertex 98 81 11
    endloop
  endfacet
  facet normal 1 0 0
    outer loop
      vertex 98 81 0
      vertex 98 0 11
      vertex 98 0 0
    endloop
  endfacet
  facet normal 0 0 -1
    outer loop
      vertex 0 0 0
      vertex 98 81 0
      vertex 98 0 0
    endloop
  endfacet
  facet normal -0 0 -1
    outer loop
      vertex 98 81 0
      vertex 0 0 0
      vertex 0 81 0
    endloop
  endfacet
endsolid OpenSCAD_Model
